<mxfile host="app.diagrams.net" modified="2022-05-14T14:13:25.661Z" agent="5.0 (Windows NT 10.0; Win64; x64) AppleWebKit/537.36 (KHTML, like Gecko) Chrome/101.0.4951.54 Safari/537.36 Edg/101.0.1210.39" etag="Q6kYG8BW-zNnzUMt3kFk" version="17.4.3" type="github">
  <diagram id="lhM5F4OLBaRsI4PdEJn8" name="Page-1">
    <mxGraphModel dx="768" dy="493" grid="1" gridSize="10" guides="1" tooltips="1" connect="1" arrows="1" fold="1" page="1" pageScale="1" pageWidth="827" pageHeight="1169" math="0" shadow="0">
      <root>
        <mxCell id="0" />
        <mxCell id="1" parent="0" />
        <mxCell id="ypg6ew3qz2R_R8vJl-XX-1" value="" style="shape=image;verticalLabelPosition=bottom;labelBackgroundColor=default;verticalAlign=top;aspect=fixed;imageAspect=0;image=data:image/png,iVBORw0KGgoAAAANSUhEUgAAAWwAAAEyCAIAAABReX1pAAAAAXNSR0IArs4c6QAAAANzQklUCAgI2+FP4AAAIABJREFUeJztnXlcVdXax58NHAaZBRkVEAkBB0RByVcxZ1NzyIEsTUMzp7piWqk3G6yEa1perUwLs6s51k0bTMUc0FCRq5CCGnIRZUaRedT9/vHIupt9DoczTzzfP/isvfbaa6+z9lo/njVzjx49AoIgCFUx03cCCIIwbkhECIJQCxIRgiDUgkSEIAi1IBEhCEItSEQIglALEhGCINTCQt8JIIwGjuOYm+d5PaaEMCjIEjEFOFm0GUy1d/33v/9VL7GEqUEiYtwwOfjss8/c3d3xcvz48dDScGCXVVVVkZGRJ0+elA7Q5ovwr7+/vwbTT5gAJCKmwNChQ5csWVJaWjpkyBAAaGhoKCoqkg6WlJRkb29/4cKFYcOG6TyNhMnC0doZ4wWtg9DQ0PT0dADYsmXL4sWLi4uLzczMXF1dQdBzwewI9izeUrxrA591cnIqLy/neZ76RAgGdawaN7Nnz0YFYbXazc0NHSIF+frrr/HSwcGhoqKizZhlNnb69Olz+vRptVNNmBRkiRgxrEPk3LlzAwcObM064Dju4cOHFhYWGzduLC0tvXbt2qFDh+RbIkxBXn311T/++MPHxyc8PLyxsfG9997Dp8gSIRgkIsYKa6H069fv0qVL0gGwnmOwGTNm7N27F32mTZt28OBBRUTE3t6+qqpKZswkIgSDRMRYke7mYKSmpvbt2xcAeJ7nOO6NN95Yv349NEsG69cAuSLCYhY1i4BEhGgJjc6YAiEhIe+///5bb701a9YsAOjXrx+qBlb79evXjx49mlV7C4sWHWHy55hkZ2cz986dO3XwWwijgywRY0VoiSQkJLz00kvoP2LEiBMnTkCzBXHv3j1XV9fvvvtuxowZGMDd3b24uFhoSqSlpd2+fbumpsbW1vaZZ55h8QcGBt64cQOaLRoA6Nmz57Vr18gSIYSQJWL0REREoIJgxU5MTGTzwbZv345jvZs3b0afuXPnFhcXA0BUVBT6VFRU9OnTZ+LEiTNmzJgwYcKUKVPy8vLwlre3N7Rs8igyrEO0N2iI1+gpKCgQ+TQ2NqLDx8cHHcnJyc8884yZmdnhw4fRJykpadu2bfPnz3dwcGjNrEA14TiOBWhoaNB4+gljhywR3aH+uhWZ3L17F8dQWLT3799Hx+jRo3ft2jVs2LAuXbr89ttv2DZhVFdXy485KyuLpRwdMifCEu0c6hPRHSgfQ4cO/f333zXSp9DmGEprTwFASUmJaFarKACNzhAKQs0ZXXPu3DkNxsbzfHh4eGpq6rhx46ysrNC46Nu3b2pqKkgJBKqAs7NzWVlZawoCzd2o6enpvXv3BoDRo0ebmZm1abYQ7RayRHQHMxw09Z+cmQai9hGLXKaVsXbt2j179mRkZMgMIIwwOTl54MCBzPPXX389efJkUlJScnIyWSIEg0REd6CIdOjQobq6WlOVUE73isxXSK/BUyHmNp8l2hXUnNE1EolEg7EpW5kVD08yQSgIjc7oGqqchIlBIkIQhFqQiBAEoRYkIgRBqAWJCEEQakEiQhCEWpCI6BrRdh4EYeyQiOgae3t7fSeBIDQJ/VfUNQ8ePIDm+aBss582odklhMFC0951h3DtjL7TogTGlVpC95Alogc0u5+Iyvj4+Hh4ePj6+no14+np6eXlFRAQIJybr1pqSXraD2SJ6A7h9h9RUVFNTU21tbWtVdGmpqb09HQrKys3Nzc3NzcLC4vGxkbcsozjuMbGRjMzM57nKysrAaC+vv7Ro0c8z9fX16P74cOHGky5RCJxc3Pz9vb28vLy9vbu1KmTh4eHh4eHi4uLp6dnx44dnZ2dFYmHlMUkIRHRHUxEGhoaNLsMrzWampoqKyvr6+vv379fXV19//79srKy+/fvFxUVlZWVFRUVCd1sU0U1CQkJ6dOnT48ePcLCwnr06MG2aFQEUhljhEREd6CI9OzZ888//0QfOXWmzTX7emwTVVZWZmZmXrt2LSMjIyMjIzMz87///a+ykVhYWIwcOfLpp58eNWpU9+7d2wxP+mKwkIjoDhQRHx+f27dvG12VUFazysrKcnNzb926lZWVlZubm5WVlZ+fX1RUhA2uuro66Uc6dOgQEhLi5+cXEBAQFBQUEBDQtWtXLy8vmfEbXQaaMCQiugNFxN7evqKiwsTqgLISc+zYsaNHj544cSItLa3NwI6OjtHR0ePGjRs9erSVlZWckCaWq8YCiYjuQBFxcHBgp1i2NxTUmtu3b1+4cOH48ePff/99WVmZnJD29vbR0dGLFi0KCwuTGaB95rOOIRHRHSQi8pEvMVeuXLl06dLFixezs7Ozs7MLCgpEbaJOnTqFhYUNHTo0KipKuDUsg/JcS5CI6A4SEWWRIytFRUX79u07duzYyZMna2pqpANIJJLx48c/++yzM2fOlBkDfQJNQSKiO0hENIJ8g+Xy5cvr1q07cOCAzLuOjo47d+6cOHGi9C36IipDIqI7SES0ikxxOX/+/MmTJ3///fdTp041NTUJb02cOHHatGljx44VzZSjT6MsJCK6g0REN7RmqiQnJ2/cuPHgwYPSt8aPH79mzZqIiAiRP30mRSAR0R0kIvqiNVmJj49fuXKl9LeYO3fu5s2bbWxshJ70yVqDRER3kIgYDtKysmPHjh9++OHMmTMVFRXMc+zYsdHR0dOnT7e2tmae9O1EkIjoDhIRA0RaTb744otFixaJPAcNGvTxxx8PGDBA6EkfEaGdzYh2DS8AfRYuXCj0XLlyJQCcPXs2MjIS/w1YWVn9+uuv0PxfQbg4u31CIkIQj+Fbgp4fffQRXv7rX/8aNmwYADQ0NIwbN47juClTpvzyyy8YrD1LCTVndAc1Z4wRkTTk5eUtWrTo8OHDQs8PP/xw1apVQp929X1JRHSHCS/AaydI2xpDhgw5c+YMu/T3979165YwQHv40NSc0RGs/Hl4eEBb0y4Jw0S6sXP69Gme58+dOzdu3DgAyM7O5jjO1dX1H//4BwZoD80cskS0i6gAcRzXpUuX3NxcoWd7+Gdlqgi/b21t7eDBg1NTU5nPW2+9tW7dOmF4k/zWZIloHdaBP2bMGAC4c+dO7969qVffNBAaJjY2NpcuXcLL+fPnA0BcXBx+5ddffx3Dm+RHJ0tEu3Acd+nSJen51MiFCxf69+9vkv+d2i1CjUhOTl67du2RI0fwcvLkyd999x2bt2Yy351ERLtgkZL5z6dz58537twBEypMBEP4xX/88cfJkyezS1EbxwS+PjVntAsWkTlz5kjfwl59EyhDhDTCZs6kSZPQ/cUXX4CgjXP58mUwiQYOWSJaR6Yx4uvrm5OTAyQi7QPh1z99+vTSpUuvXLkCAB06dDh69OigQYPwlpEWBrJEdAQb80NIQdoVwlHhIUOGXL58efHixQBQU1MzePDgCRMm4C0jtUrIEtEF0sYIFikSkfYJKwmVlZUODg7M/+HDh2Zmj/+vG1HZIEtEd7ATnm7evAlGVUoIzcIME3t7e57nz5w588QTTwCAubk5Ls8Bo5qOqK4lYkQ/1RDgOE56ZjQhHxNWW2H1mT59Otsa9tatW/7+/ug2/J+vGRGJj4+/cOFCQUGBZs+RNg0kEomlpaW5uXlOTg7KR2BgoJ+fX0NDQ1VVFamwCI7jbGxs7O3tX3nllfHjx4Mx1CL1YcXgk08+WbZsGbovXbrUr18/dBtyJqglIvjLu3Xrlp2drbkkEcRjPDw8CgoKDLn+aBYmJYsWLcLx4HHjxv3888/oabD5oAERYb986tSpt2/f1ky6TAiO4xoaGqysrBwdHUNCQqqqqnJycioqKhoaGiwtLQ22ZOgLGxubiooKHAGFluMa7QFWm7Zv345z5wGgpqaGbfhqgLmhGRHp06cPzpwhCE3h5+eHJ58bYLXRNkxKNmzYsHz5cnSzfDC0DNGMiOAeGWB4P48wRrBcWVpaNjY2tk8RQZiUODk5lZeXA8BXX301d+5c9DScbNHMEG9lZaVG4iEIRmNjo76ToGeYTDx48CAgIAAA5s2bx9o4htMlr7E+EZo9RWgKUblq54VKKBbMbVBNG5psRhAGjVBGeZ5fsmQJAHAct3XrVjAMe4REhCCMAKYjmzdvxk2hFy5ciHsd6X3FDTVnCIODmjNyYHphOE0bskQIwpgQSgbOZ+U47saNG6C/pg1ZIoTBQZZImxiUPUKWCEEYH0xbeZ7fuHEjAHAc9+OPP4I+7BESEYIwVlBHYmNjT548CQCTJ09+5513QOc6Qs2Zx0jnu2q/RVPxqBChtGVrpFBzRikwo1atWoX7P2dkZAQHB4MOiwFZIi1GyKqrq4uKiqT9lY2nsrLy3r17qsUjM8Lbt2/j1vDQyv8Z0ZQkQ5g+QOgGFIuPPvoIl7+GhITgGLDOygCJyGOcnJw4jrOzs/Pw8OA4rmvXrmlpaaDkl8jMzMQK7ODg4OrqynFcRESEarYevvfAgQMYoZ+fn4+PD8dxiYmJrQVevHgxBq6rq1PhjYTxgjri4+ODjnXr1q1cuRJ0pSMkIgAAwcHBuMCJkZOT06dPH2XjCQkJEflcunTJ3NwclPycGHjo0KHTp08X3Tp//rzMwG+++ebnn3+OPkuXLlUm1YQpwBovX375JQDExcXhpQ50hEQEAODs2bM3btzgBaD/lClTlIrnzp07fEvQf/fu3YpHgl99z549p06dgpaHSPM8//e//13mU8Ld5HGxFtHewPI2f/58NFc5jsvMzATt6wiJCACAi4tLYGAgCOQ8MjISALDTGwTn6Qq7G6R9OnfujA4WD56ZmJKSomySnn/+eQD44YcfWITS2gTN5WPq1KkA4OrqiocPVFdXK/s6wjTAsjF8+PDTp08DQEhISGlpqbZfSiICMitnp06dAKBHjx7MZ9u2bfb29uwSa++8efOw8dlaPN7e3gDQtWtXpZJ0+PBhAHBycsLjF+V3s6ekpHz//fcLFiz49ttvcQObpqYmpV5HmBJYWqKiory8vKC5JGvVGKEh3seIchkvs7Ozu3btyvO80NxgvzEqKiopKQkEw5CiSNLT00NDQ0HJzOE4btKkSYcOHbp79y5qkAgWD77OwsLi4cOH6Ll3794ZM2bgaa/G/i1oiFcdMPeERRS0Vj3JEgFozvGsrKw9e/YsXLgQLxcuXCi0INgeOdu3bweA/Px84ecRkpmZmZCQ8MILL6CC4JJtpcClEJ07d+7fv/+wYcNQwrp3744WirCODRgwQLjDPm5S2dDQoOwbCRMDi+WZM2dcXV2hua9dW/bIIzUQ/pdAtzqx6RGe5zds2CDKmYaGBvaj0MFGRq5fv46OwYMHC384z/PPPfecMBJnZ2dlc4bnebYrrzQffvihdLuJXS5YsAAAVq9ebbzf4pFUudJ3cowVUSE5cuSIliopWSKPefHFFwMDAyUSCfOxtLREB8dx+CUGDBiAPkFBQQAwZsyYM2fOQEtj5NVXX/X09GSXZWVlQsNBQWpra9GRm5vLisLZs2cBYPXq1ceOHcO7sbGx0LIbFacq0ugMAYJi+dNPPwHA008/jZeat0fUUSBTskRE9O7dW/p38Tx//PhxlnUnTpwQ/WTpeDp06AAA/v7+iucPy9LPP/9cZAqhf0REBM/z2JgCgPLycvY6lLn+/fubwOdg+a/v5Bg3mJnvvvsuAHTs2FEbBYMsEQBZAyt79uxBh6hHQzhAg8O3Ql2XjgcngGVnZ1+9elXx9Dg7O0PzKC8v1SWGA8ZsatmmTZuqq6vv3Lkzd+7cCxcuAMDFixf3798POploRBg4WHJwYd79+/fZkl8NvoJGZ2Qg/F3PPffcnj17eJ6X2SqR/6uFj3zzzTezZ89WJH84jhs4cGBycnJ8fPwbb7yB8YvezvP8qFGjhGaRNMOHD09MTDTGL0KjM5pFOLMJtFBV27slIj2LDP9eu3YNA2BHKXriKsmxY8eyD8AeaS0eNld1zJgxrb1RmpdffhkA3nzzTeFbGB999BEAHDt2TNR0YrYJANTW1spcZUO0Q1hxxbONVeikawN12kKitqsxNl8x2fn5+aIK6ePjI/xdPM+z84bxsqamRhRAZjzCD8kLejesra1xjnxrScKn3nzzTRbVtm3bpN8oAnVn7dq1Rvo5EFG50ndyTATMVScnJwDAE441lbft3RIBgJiYGC8vL5GBkJubCy1NPn9/fwD46quv8NLGxmbQoEEAwHEcTiHp1q2bdDwYmG9pOi5YsKCurq5Lly5yUoVriOPj41lUeGpRcXExi1NasHbs2AEAuMMVT60AQgCWh7t37wKAcABRfUhEICEhoaamZvz48b169fL19e3SpYuzs/N7770nqoRbt24dNmwYHmKIt5KSkmbMmPHiiy/iwPCtW7f++uuvESNGBAQE+Pr6+vn5ubu7b968WfhPFWUFB4ZjYmJkpgfD9+7d+8qVK7NmzXJycvL09OzateuLL77I8zzOYm5NIIqKinx9fS9duqShvCFMDVtbW5wtid32GmnUUMdqG/nIS81n51t2iDBPxePBv/X19ZaWlq3lmJzIFXlETjDDhzpWtYcwb6uqqmxtbdXPXrJEZBdTUaeGnG4O5qlIPADQq1cvAEhKSmKT2dpMlbBZJOeTS7duCEIEFowRI0YAgJ2dHWjCGCEReYymamCb8Tz55JMAgP0pbb6IdIHQBsePH8e5SBqBRETXbNu2zXibfoQJwDdvoQgA7PgrdSKkPhGdokjXBkF9ItpGmMPHjh0bOXKkOplMlohOobYJYThgIXz//fdBPWOELBHC4CBLRAcIM7mhoUEikaicz2SJEER7BCUD9xKWP1DYJmSJEAYHWSK6QVP1lywRgmjXzJkzBwDS09NB1Z4RskQIg4MsEZ3Bcdz9+/ddXFxAjSqsGUsEt+chCMLo6NixI65ZZ4c9K4tmRIS2FycIYwTtDtx6ZtOmTapFopnmjEQiIR0hNIudnV11dTU1Z7SNcGMtVANlM9xCI+lobGzkOG7r1q35+fkA0NDQoMl9k4wcnuctLS0lEsnDhw+rq6slEkmHDh0ePXrU1NSkjYxiLVvNb2ClfXied3R0LC8vZ+dRE9qGFRWe5/ft2xcdHa1sDBqwRCwtLdnBTgShWcgS0QEcx02ZMgUPflYhw9USEWjWkcOHD9+6dQvPWKFPLo2NjU1FRcWJEydwo/bw8PBnnnnG3Ny8vr5e4+8yNzf39vZ2cHCoqakpKSmpqKgwLmOE4zhLS8v6+vrY2FhcaUolStuoOcyqroiAsRnM+kX4nQhFoLzSAVgsn3zyyfPnz6sgIhroE6HPrAhMatkxelrKN3xRSkpKRESE9t5CmBLYLTJ58uTz58/fvHkzMDBQqcdpxqqOYJUZD6PQat3esmVL//79w8PDtfcKwvTA01FWrFgBSjYvSER0jZmZ1vM8NDQUAMLCwrT9IsKUwClnhw8fVvZBEhETBBdl4g6aBKE4o0aNAgA8L0VxSEQMFE4l8FlsK1lYWEhHJTN+3f86wtAQblCEBzkrDomIQbNr1661a9fOnTtXurbHxMQwFejRowd6Yhg8B4cXHFKxc+fOnj17smfRs2/fvrh2kyAQ7PU/d+6cUk9pZsYqoQ2WLFny2WefybzFBMXFxeXevXsZGRnCGTrm5ubQLCUILvcWcvv27cuXL48bN07lZVeEqXL+/HkAUHzOF1kihouXlxc63n33XeE8QpyYnJiYyPN8aWkpz/NXr14FgGnTpmEAR0fHNiPHHhNcA04QIBgxLCwsVOpBEhHDpby8HB3vvPOO0F+6yYrdH99//z1e2tjYtBk57t5gZWWlfjoJ0+Nf//qX4oFJRAyXe/fuMTezRJjnxYsXAaC+vj4vLy8zMxOah+hkIt17iiPNrPOVIBA8Zx7P61UQEhHDBXdX8PX1FXoyU3PVqlUcx1lbW3fu3Hny5MkA8Mknn+Ct2traNiNHa4WGZggRq1evBoCkpCTFHyERMVzQ9BApgpOTEzoKCwtFh2yilABARUUFtHUIeV1dHQA8fPhQu7+BMDbmzZun7CNkzRouWPOrq6uFnt7e3uhwd3cHWdPnOY5D3WnNHkEdQbNF/eWXhIlhbm5ubm6u1H8XskQMl6KiIpASEQDo27cvNPeMypxvho/k5eVBS5V57bXX0LFixYpVq1YBQFlZmQ5+CGFc2NraokPB1i6JiOGCLRfh7HVUhNTUVACor6/nOK5bt25eXl6iqWhYCITDt2hxbN68GUOybjMPDw9d/BLCSMACFhQUpNRT1JwxXHbt2vXUU0+J1tHhqm2e56Ojo/fv35+dnY3+3bt3Z2EiIyODg4O/+OIL5sNxXG5uLhu+2bJli6WlZWlp6QsvvKD930EYGT169MCxPwXRwKZEhIKgFeDg4FBeXt7mXECRJSkML8fIFE51b82ntacIAgA4jvvyyy8XLFjw119/BQQEKFI2qDljoIhGXuTckg4m36e1pwgCCQkJAYDk5GQFw5OIEATRAj8/P2juelMEEhGCIFqA0whwCz5FIBEhCKIFuCQiKysLFBvlJREhCEIGOTk5CoYkESEIQi1IRAiCUAsSEYIg1IJEhCAItSARIQhCLUhECIJQCxIRgiDUgkSEIAi1IBHRNXgoDEGYDLSfiHaRnjWMu2nL3ACVIIwRskR0TUlJib6TQBCahCwRrbNgwYL09PSnn37a2dkZAAoKCuLi4qqqqjIzM93d3T///HN9J5Ag1IJEROvU1dUlJycLt3hZuXIlOmbPnq2nRBGExqDtEbUL9n3IXE/dpUuX3NxcoD4RwpAQllgsmW2WT+oT0S74AUaPHi19a/fu3UAKQhg/ZIloHZnGiIWFRWNjI5CIEAYGWSKGS1xcnPCSFIQwcDp06KBgSLJEdIG0MaKgxhOEjmFldcCAAefPnweyRAyK69evo+PMmTNACkIYKvn5+QAQGhoKipVSDQzxKnhgJ4GH1HXu3Hnw4MFA+aYYJLW6Bw+B7tGjh4Lh1RURrAl1dXUlJSXW1tYSiUTNCE0SMzOzmpoa3IP/7t27R44cCQ8Pt7KyorakTJqamsrKyp544gkAwDND9Z2i9kVhYSEABAcHKxheLRGRMwmCkMPYsWP1nQSjgRRE9+A+7z179lQwvMZmrAYHBycmJuL50jj0QAiRSCQWFhYSiaSxsbGpqYmyqDUcHBwqKytnzpyZl5en77S0UwoKCgDA09NTwfAaE5GLFy/a2dl5eXlpKkKiPXP27NmuXbvqOxXtFMVPnEE0IyLdu3e3s7MDMj4JTcBxnJ+fn4eHBzbOCR2DozOKo5kh3lu3bmkkHoJgkILoC/2ISFNTk0biIQhCj+AgCRMRBRsWNNmMIIgWVFRUKBWeRIQgiBYo27NJIkIQxP/46aeflH2ERIQgiP9x8OBBUGaSCJCIEAQhZP/+/QAwZMgQxR8hESEI4n/U1dUBwKhRoxR/RK39RFTYBIkg2kRUrqhQ6QyO4zDbS0pKXF1dFcx5EpHHyFxGqMLPkY5HnTxRKlUmcyAWiYi+YCKiVHWm5sz/Mg4AqqurcfURu6VyPOyQKqG/sglj7gcPHlRVVclJlciTllYTysLKjK+vr1IPkogAAPz73//Gqo5rCNGNu7ErWBsx2HvvvcficXNzQ/fNmzcVj0cU4cKFCzESZ2dne3v71vSI/etGNm7cqNS7CEJIt27dQBljlkQEoPn0hh07dhQUFOTk5FhbWwPAzJkzlY3n559/xr8FBQW4BRE0b2imFEwUtm7dCgBpaWlo1cfFxUl/WgyMu6UhVlZWyr6RIBiK7ySC0Al4AAA7dux49tlnn3/+ebysra3FmjlnzpxvvvlG8Xh++OGHwsLCiIgIAMBFqB4eHgBw4MCBadOmKRgJvvqrr77CS6FqvPnmm609dfbsWeam434J1Thy5AgAYAFWHLJEAADs7e1RQViNfffddwFg586deMm1RNoHH+zSpQt+ALx0d3efPn06AHz55ZfKJunll18WpodvCQuGiXF3dwcAPz8/lB5zc3OVsoFov2BBwgIfFRWl1LMkIiCzcmK1j46OZj5PP/00648QOtjeOTLjwak7qAiKg9+SWUbQSu8s+mzfvr24uPi33347evRop06dAKCmpkap1xEEsm/fPgDw8fFR6ilqzjxGWEUzMzNxjGbv3r3MEwdHhPsGT5kyBQD8/f1bi2fbtm3oEIqRInz//fcA0LdvX5mJFHWLrF69GppP6kxJSQHanpLQLWSJADRXzsrKyp07dwYFBYWEhADA1atXhWGSkpLQ8dlnnwFASkrKDz/8AAAnTpwQxVNRUbFhwwZLS8tXXnkFVJqycenSJQBYvny5qNH09ttvg6DbFf/iPvvCB2nPfUIFcAeAZ599VtkHSUQes2LFCgcHhzlz5ty4cQN9MjIyRGFQDpYsWRITE9O/f38A+PTTT6GlTAwfPtzR0XH58uXMHMjKylI2MWyuip2dXVxcXEJCwrhx4wDggw8+GDRoELS0d8LDw2tra9GNu0NZWloq+0aCSExMBIC5c+eCsv/5HqmBsP2PbnVi0yOY+KlTpw4ZMoQ1T6ytrVkfBwsjrL1TpkwR/Wqe5+/evTtp0qQnn3zSz88Pg3Xp0kUYjyKJYa/47rvv2LO//PILeh4+fBh9JkyYAABHjhxhYXBY+o033jDeb/FIqlzpOzntAp7nY2JiVKvINO0dQNZMMOYj/F3C3wuyfrKC8bSZGJl9H6LYdu3aNWvWrBEjRhw/fpwFeOutt+Lj4z/44APsKFHwjYaGqFwZ408wLjCrPT09CwsLVajI1JwBkDWAimsZobkHBJoz+rXXXmNP4TCwUDikB2iwpxMA0tLSFE+Po6MjAJw+fVoYJ7ScRRYfHw8AiYmJwk4T9Pz73//OcVxubq4yeUC0a+7fv6/yztgkIrJh1VV0hNLmzZuZOy4uTk4MWO3Dw8PxUqkdtEeMGAHNw8xCkaqvrwcAZ2dnAHj11VflR1JcXKwvJ9QWAAAS0ElEQVT4G4l2zt/+9jfmVtb0a+8iwslCGCAwMBCaazL2QYwYMQJzub6+XubEM2E8TIMCAgJkvlFmqkaOHAkAe/bsET7C7i5duhQA5s+fLzKgysvLXV1dAcDR0ZHneaZfBNEmu3btArlTouWhZmcMb+QdqzzP//zzz5GRkf369cvMzOR5vqGh4YMPPmD5w6rosmXLRD54uX37drxcu3Zt3759J06ceOfOHZ7nq6qq5s2bh2GioqJY/vA8j4Mpy5Ytk5ljol6AnJwcnuf/+c9/4mVgYKDMrEZP3JBq9OjRRvo5EOpY1SXq12ISET41NRV/gqWlpb+/v/D0RuH/eRxtuXz5MvPZtGkTNE8/43meTS2zs7MLDAwUTvsTZg7P83PmzIHm0R+ZSeJ5HlsuSFhYmMyopJ/C1ta3335rjN+CQSKiS1huh4WFkYiogsisYLz77rt8SyZPnhwZGSk0KHiex5YkC1NUVCSK58CBA+wueyoyMhIAxowZ01qOsUdCQ0NZVAMHDhRG1dpTLi4uRvotGCQiOgOz+sKFCwCwcuVK1XKbhnjl7fTBC0Z2RZ7yH5QZDz5SXFyM6+Xk51hrkcvJ4dbSaXTQEK/OEGZ1Q0ODRCJRIbdp7Uzbla21AMpmN36q9evXgwJDJyp8S6pshArgzGx/f3+VV0uQJaI7MKOcnJzKy8spu+RAlohuwBx+4YUXvvvuu8LCQnd3d9WymkREd5hMc0PbkIjoBk3VX2rO6A6qDIShsWTJEuZWuXySJUIYHGSJ6ABhJv/yyy9jx44lESFMBxIRHcAy2c3NDacmqJzP7X3aO0G0Q1BBcPOtjz76CNQ8Yo0sEcLQIEtE23Acd+zYMdxSU/2aSyJCGBwkIloFM7Zjx45lZWXCmcEqR0jNGYJod7z++utlZWXsUk2ZJkuEMDjIEtEewrxNSUkJDw9XP3s1Y4l06dJFI/EQBAP3RiE0CGoHns06YcIETe04o2FLhCA0QnV1tZ2dHZAlolE4jvvrr79wny0NNh00NmM1Ojoaj89qbGzEgwsIIRKJxMLicW43NTVhFlH1EPHo0SNbW9umpqbx48frOy2mBv6zRwVhp81rJmb1LRFLS0s6co3QEmSJaARho0EikTQ0NIDm/oepZYnwPM9xXENDQ0xMTF5eHvtPC8rstdEeMDc3Ly4uPn/+PPOJjIx0c3N7+PChHlNlgGCJ4jiuoqJi+vTpixcv1neKTAGsjH/++ScAmJmZaVZBQE1LBEgslITjuMjIyOTkZH0nxJggS0QdsIaWlZV17NgRAHJycnx9fcGgRIRQHPwf6+jo+ODBA6oYhG4QNmRu3rz5xBNPgKZ1mSab6Rpho48gtIpQQQBAGwoCJCK6hzqhCd2A2tGrVy+81N50UBIRgjBBUEG8vb2vXr3q4+Oj1QnlJCIEYWqggvj5+eHhrbdv39bq66h9ThCmA+v+iIyMRO3QyDpd+ZCIEISJwBQEHba2tlVVVeij1dFAas4QhCkgUhAA0I2CAIkIQZgAKBz19fVMQXTQimGQiBCEEYMzGAFg1KhR1tbWALB9+3Y2FqObOY0kIgRhrDC7Y8GCBcePHweAt956a968eaDbtQLUsUoQxodwzZpemjBCyBIhCCODqYabmxu6ly1bpi8FARIRgjAiWA9ISkqKi4tLSUkJAHzxxRcbNmwA/e29Qs0ZgjAChO2X0NDQ9PR0dOvRAGGQiOgaiUSi7yQQRgZTkK5du+bk5KC7qanJ3Nwc3frdWYKaM9qFE4A++OGl/QlCGlZCzp496+DggAoyZMgQnuexIBnC9pFkiWid1NTUfv36sUvhSQjJyclPPvmkPhJFGDoyx1+gpdGhd/lAyBLROsuWLRMaHRkZGexy9erV+k4dYXCwohIfH8/caH0Ie0AMREGAtkfUNhzH5efne3t7y7xbWVlpZ2dnOKWB0C/M4sjJyXn55ZcTExPxMiEh4aWXXkK3AZYWas5oHS8vL5n+U6dOxfOZiHaOsLVy7ty5QYMGsctTp04NGTIE3QYoHwg1Z7QLfvhffvlF+taBAwfAgEsGoW2EjdxTp06hGxVkzpw52GBBBTGoxos0JCK6YOzYsX5+fkKfJUuW6CkthP4RjsqlpqZOmTJl6NCheNmrV6/Lly/v2LEDLw1cPhDqE9EFHMedPHly2LBhzEere14SholoOH/dunWrVq1il9HR0Xv37mWXRlQ2SER0AZaeDh061NbWAoC9vX1FRQUYVUEhVEMkHAUFBTNnzvz999+Zz9KlSz/55BNhGKMrFdSc0R0FBQXouHnzJhhhWSGUQjSTcN++fSNGjPDy8mIKMn/+/MrKSqYgfDN6SKt60OiMdhEWI0dHRwBYtGiRh4cHyFrBTRg70vOP16xZs3btWqFP586dL1686OnpyXyMvQCQJaIVhB3vOTk577zzjqenJ15+/vnnHMd1795906ZNwsD6TC6hHqIVDP/+979xkT7HcaggISEhiYmJaGjcuXMHFcR4TQ8R1CeieVhhOnr06Keffvrbb7/JCTlr1qz4+Hi0TcD4/ym1K0TSX15evmXLloSEhOzsbPSxsrKKjY1dvHhx586dWTDT+8QkIpqElarr168HBwcLb61Zs+a9995Dd0VFRWxsbEJCgjCAIazpJuTQmrW4fPly3M5DyKJFiz777DORp6l+WRIRjSG9Z79QOOQwatQo3CBzzJgxR44cAdMtbUaHtHAkJiZ+/fXXwrFYxM/Pb9asWWvWrBEd2N4ePiWJiGbA0tbU1ITbhTg6Oh4/fjwiIgLvtlaSWBndt2/fc889BwDdunXLysqS8wihA6S14+jRo7/++uuxY8euX78u9B84cOD06dNnz57t5OQk9G9Xn49ERAOIbJCuXbuyVrEihUn0OOmILpHTpZ2QkLBq1aqioiKRv42Nzdq1a19//XXpR9rnJ6PRGY2BxXHhwoWoIIp3vAt7Q/z8/G7dujVx4kSQW74JFeBkgbdOnjz50ksviW7NnTsXFWTmzJmpqalsMKWmpoYpCN8Svf02vUKWiLpgQZwwYcJPP/0kv1Ojta1lRHfRsWvXrhdeeKHdlksNIlOLs7Ozf//99zNnzqSlpeXn55eWlooCREVFPfXUU8OHD4+KihL60xeRhkREXTiOS0hImDt3LrS1Igb/v+3duzc6OlqOynzzzTe4eQStr1EQRUy2rVu3rlu3Ljc3t7UAPj4+sbGxr732mpmZDPOcvoIcSETUAosv/m1zjBZFxMvLKy8vT35X66xZs3bt2sX2kqASDIopRUpKysWLF//444/09PSrV6+2Fmz8+PETJ06cMmWKs7Nza2EozxWHREQtOI6Li4tbuXIlKGA4sEa4/PYzx3EFBQW4lVFrccpvGZkAbUpGdnb21atXb9y4cf369dzc3KysrMLCwrq6OumQtra2gwcPHjNmTHh4eGRkJNshnWGSGahLSETUgunCxo0bY2Nj5RdHDOzo6PjgwQP5IgIAYWFhV65cSU1N7du3rzCwsHadP38+MjLSKOqAyp3EpaWlhw4d+umnnw4dOqTgI56entHR0dOnT5ezCbZRZJqxQAvwVIdVDDs7u9jYWAWfEk1GkobneY7jDh48GBAQcOjQob59+4pex6bD2traVlVVqZJ0DaGCNDx69AgtiBs3bqSnp9++fTs3N7ewsFDBx728vPr06dO7d++IiIjQ0NBu3bq1+QjphbYhEdEAAwcObDMMq284G43jOPmFG6vHH3/8IXy2sbFx6tSphw8fxkv1t0fTxihyWVlZbm5ufn5+Xl4e/i0uLn7w4EFVVVVZWVlVVVVFRQXuqyIHMzMzPz8/Pz+/oKCgXr169erVKzQ0VP6WtCQW+oJERC1waBD3tmut0SGC1QTpMNLVQDjTqWPHjmVlZcK7cXFx8t+lGpWVlfn5+WVlZcXFxfn5+SUlJcXFxcXFxYWFhffu3cvNza2srNTIiziOCwsLCwoKCgkJ6d27d69evUSbSLYG6YVBQSKiFleuXAGAXr16CT2FQzbSZGVlSd/CIRt2iS0aAPjzzz/laIThzEazt7cPDg7u1q1bt27dAgIC/P39g4KCOnXqpHKEJBNGBImIWuD/ZGtrazXjuX//viaSoxxmZmb29vYuLi729vYODg42NjYODg7W1tYODg5CB7rt7e2trKysrKxsbW0lEomDgwP6KP460gVThURELXDZ1YMHD6RvZWVlFRcX8zxvZWVlbW1dXl5+4sSJNWvWAMDbb789adIkS0vLqqqq+vp6CwsLtlRPmhUrVpw9ezY5OVn61qJFiz788ENHR8eamhqJRGJpaam5X6YipBTtEBriVR3WbFm+fPn69esV6RPhOM7d3b21wQgWA4s5JCTk2rVr6Llz5845c+YIw9fU1NjY2CibbKrnhGahBXgaAM0E0QSw1pZm2drathmGERoaytyzZ8/mef6VV15hPtu3b5cZj3w0/euJ9g5ZIqrD7AWOe5yNikw2w/Mi2pxsdvr06aeeeuof//jHihUrMLBQpJibdIHQO2SJqI5wscz8+fMVfErm+i5p8KSr6dOnC18nfCPJB2EgkIioy549e6C5ZaHImGt5eXmbYdLS0h49emRpaenr6yu6RfJBGBrUnFELVA07O7vq6mqhmdBa4DYX4GGAkSNHJiYmlpSUuLq6yomQIAwBskTUAqs3nmmmiBnSsWNHnJ8mE4whNjY2MTERAEhBCKOAREQD9O/ff968eQAwfPhwkKsm9+7dEw64CGFPffrppwCAOkIKQhg+1JzRAMJ57r17905LS0N/xSVAtDfi1KlTDxw4oFQMBKEvyBLRALxg66D09HSRIsiHdZTcuHEDHTExMaQghBFBIqJJmFnXqVOnjIwMaOucXXbr2LFjQUFBAODq6vr1118DKQhhPFBzRmNIGyDCpk1rlJeXs3OPZs2a9e233wIpCGFUkIhoEiYf7Cg8xvDhw+fMmRMYGNjU1HTt2rVNmzaxRTEAEBERcfHiRXSTghDGBYmI5mFSsnnz5s2bN//1119yAoeHh3/88ce4qzuQghBGCImIVhD1g+zfvz8+Pv4///kP8xkzZsyKFStwbjtC8kEYKSQi2kWkJqITahCSD8KooU2JtAvfcosQAOjcubPolsYRrvHV0isIgkFDvDqC1Wfc6FzbCpKfnw+KTVQhCDUhEdE1jY2N2n5FUlKSt7c3O7meILQKiYgJgnu+ojFCENqGRMQEcXNzAwAPDw99J4RoF1DHquEis0dDeqtE0S1ouZZHFFi+J0GoAFkiBoqwkpeWln744YejR48GwWKckpKSFStWvP322x9//PGJEyeEj+BkWXZeJ3p+8803oshxTzaCUBOyRAyX559/XlTPz50793//938A0KFDB9Fxtj179mTH5Zmbm0PLk8PRX3jiREZGxvPPPz9v3rzq6mot/gaiHUCWiOESFhaGjldffRV3VEQF2bFjR21t7bZt29h+q7t377569eqWLVswvKOjY5uRe3t7A0BwcLDWkk+0F0hEDBd2bvY///lPoX9MTAy07DdFudmwYQNeKnKsJ1or+Jcg1IFExHARHZSH3Z+s9dHQ0MBu1dXVAUBOTg5eSp+nKX1OBTZ2hE0eglANKkOGS319PQC4u7uDYACluLgYHVOnThWF37hxIzpqampEt6THX9BaoSmthPqQJWK4yFwbyayMN954Q3Q+ZmxsLN6qqKgQPSUtItgvq+BJWgQhBypDhgt2WGBThYEdolZWVvHx8dKPoFigiDx8+FA6ABshTk9Ph2ZjhyDUgUTEcMnLywNZJ+Z5eHjU19cPHTq0tQdRdwoKCpgPWhw7duzAy5SUlMjISJBlsxCEspCI6BrRtolywNnrLi4uzAcNDVSHU6dOTZ48+fjx40eOHNmwYcPIkSOhuY8DN23Fx4XHa8XExISFhb3//vtsbZ6np6fGfhjRXqGOVcNl0qRJN27ciIiIkL514cKFAQMG/Pjjjz/++CPz5HkeRQRHfIXbpg0ZMuTtt99eu3btlStXrly5EhQUFBkZWVFRId07SxDKQjubaRfpnc2eeuqpkydPCj1lLl0RPSgMo9SQipy1NvITQBAKQpaI1lm/fv2pU6cGDRqE08NOnTq1fv36qqqqwsLC4ODgpUuXynxKTsVWoc6TTBDagywR7cJx3DPPPPPzzz/LvDtt2rT9+/dTDSeMGhIR7SI8pleEi4tLaWkpkJlAGDk0OqNdUCDGjBkjfWv37t1ACkIYP2SJaB2Zxoi1tbW2d2wmCN1AloiOYEtsEVIQwmQgS0QXSBsjoh0MCcJ4IUtEdxw8eBAd3377LZCCEKYCWSI6ghkjvXv3TktLAxIRwlQgS0RHoGTs3r2bFIQwMcgS0R10SgNhktC0d91BwkGYJNScIQhCLUhECIJQCxIRgiDUgkSEIAi1IBEhCEItSEQIglCL/wcYwK01xrPpRgAAAABJRU5ErkJggg==;" vertex="1" parent="1">
          <mxGeometry x="90" y="50" width="244" height="205.12" as="geometry" />
        </mxCell>
      </root>
    </mxGraphModel>
  </diagram>
</mxfile>
